<svg xmlns="http://www.w3.org/2000/svg" viewBox="0 0 335.48 160.42"><defs><style>.cls-1{fill:none;stroke:currentColor;stroke-miterlimit:10;stroke-width:4.97px;}.cls-2{fill:currentColor;font-size:40.51px;font-family:Trap-Regular, Trap;}.cls-3{fill:currentColor;font-size:78.39px;font-family:NexaBold, Nexa Bold;}.cls-4{fill: currentColor;}</style></defs><g id="Layer_2" data-name="Layer 2"><g id="Layer_1-2" data-name="Layer 1"><rect class="cls-4" x="61.76" y="38.74" width="8.96" height="48.25" transform="translate(132.48 115.19) rotate(180)"/><rect class="cls-4" x="8" y="38.74" width="8.96" height="48.25" transform="translate(24.96 115.19) rotate(180)"/><rect class="cls-4" x="42.12" y="58.39" width="8.96" height="48.25" transform="translate(129.11 25.37) rotate(90)"/><rect class="cls-4" x="8" y="80.59" width="8.96" height="48.25"/><rect class="cls-4" x="61.76" y="80.59" width="8.96" height="48.25"/><rect class="cls-4" x="27.64" y="71.48" width="8.96" height="48.25" transform="translate(-63.48 117.19) rotate(-90)"/><circle class="cls-1" cx="12.48" cy="19.59" r="9.99"/><circle class="cls-1" cx="66.24" cy="19.59" r="9.99"/><circle class="cls-1" cx="66.24" cy="138.82" r="9.99"/><circle class="cls-1" cx="12.48" cy="138.82" r="9.99"/><path class="cls-4" d="M99.12,100.7A13.54,13.54,0,0,1,92,98.77a14.82,14.82,0,0,1-5.16-5.16A13.54,13.54,0,0,1,85,86.53V61.94h59.48V47a4.58,4.58,0,0,0-4.56-4.56H85v-9.6h54.92a13.72,13.72,0,0,1,7.2,1.93,14.85,14.85,0,0,1,5.15,5.15A13.5,13.5,0,0,1,154.15,47V100.7Zm0-9.6h45.31V71.54H94.55v15a4.61,4.61,0,0,0,4.57,4.57Z" transform="translate(0 -10.54)"/><path class="cls-4" d="M172,98.77a14.82,14.82,0,0,1-5.16-5.16,13.54,13.54,0,0,1-1.93-7.08V47a13.59,13.59,0,0,1,1.93-7.08A14.79,14.79,0,0,1,172,34.72a13.45,13.45,0,0,1,7.08-1.93h54.8v9.6h-54.8A4.59,4.59,0,0,0,174.52,47V86.53a4.61,4.61,0,0,0,4.57,4.57h55v9.6h-55A13.54,13.54,0,0,1,172,98.77Z" transform="translate(0 -10.54)"/><path class="cls-4" d="M244.31,100.7V10.54h9.6v51.4h18.74l26.69-29.15H312v.11L281.2,66.74l30.67,33.84v.12H299.34L272.65,71.54H253.91V100.7Z" transform="translate(0 -10.54)"/><text class="cls-2" transform="translate(84.01 124.45)">with achieve</text><path class="cls-4" d="M230,162.53l1.17,1.58c-.81.77-2-.07-2.79.59H224.3c1.1-.66,2.5-.72,3-2.11.78-4.83.15-9.68.21-14.52,0-.37-.33-.6-.58-.85a.42.42,0,0,1-.24-.42c-.11-.75.38-.9.95-.88a51.32,51.32,0,0,1,6.79.15c1.45.76,3.29.93,4,2.74,1.71,4.16-.67,7.47-5.34,7.39a1,1,0,0,1-.24-1,3.75,3.75,0,0,1,1.62-1.41,1.35,1.35,0,0,0,.67-1.69c-.84-3.9-1.19-4.2-4.73-4.11a11.59,11.59,0,0,0,0,6.5,6.34,6.34,0,0,1,.41.6,1.15,1.15,0,0,1,.14,1l-.93.15A11.48,11.48,0,0,0,230,162.53Z" transform="translate(0 -10.54)"/><path class="cls-4" d="M214.58,152a56.08,56.08,0,0,1-4.66,11.71c-.15.21-1.26-.49-.53.57.27.38,0,.83-.06,1.24-.56,1.55-1.1,3.11-1.67,4.66-.32.86-1.08.88-1.76.7s-.52-.68-.24-1.07c3.61-5.19.3-9.69-1.45-14.33-.53-1.39-1.14-2.75-1.74-4.17,1.55-.57,2.3-.22,2.83,1.41,1,3,2.31,6,3.66,9.39L213.05,152C213.57,151.14,214.08,151.07,214.58,152Z" transform="translate(0 -10.54)"/><path class="cls-4" d="M300.09,149.34a4,4,0,0,1-2.29,5.52c-1.95.88-1.54,1.62-.52,2.72,2.05,2.18,2.73,5.63,6.42,6.43-2.59,1.37-4.16,1.12-5.51-.73a57.77,57.77,0,0,1-4.07-5.74,2.39,2.39,0,0,0-3.09-1.32.4.4,0,0,1-.6,0,1,1,0,0,1,.46-.93c.2-.15.4-.29.61-.42a3.28,3.28,0,0,1,.9-.53c4.13-1.4,4.42-2,3.2-6.25.07-.84-.15-2,1.38-1.4a1.18,1.18,0,0,1,.45.07C298.38,147.54,299.15,148.52,300.09,149.34Z" transform="translate(0 -10.54)"/><path class="cls-4" d="M249.17,162.46l.52,1c-1.1,1.25-1.85,1.29-3.72.17a67.55,67.55,0,0,0-.09-16.93c.06-1.48,1.2-.59,1.83-.83a3.09,3.09,0,0,1,1.5.66.8.8,0,0,1,0,.79l0-.09a6.44,6.44,0,0,0-.13,4.73c0,1.68.64,2.47,2.46,2.2a24.78,24.78,0,0,1,3.34,0c.07,1-.67.66-1.16.75-1.06,0-2.12,0-3.61,0,.08,0,.3.33.41.27,1.09-.5,2.27-.11,3.41-.23.59.13,1.58-.4,1.46.89a17.45,17.45,0,0,0-6.2-.06A12.37,12.37,0,0,0,249.17,162.46Z" transform="translate(0 -10.54)"/><path class="cls-4" d="M297,146.66c-1-.23-.69.89-1.24,1.13a2.39,2.39,0,0,1-1.66-.21,2.45,2.45,0,0,0-2.44.12,5.82,5.82,0,0,0-.33.59c-.3,2.14.21,4.31-.33,6.43-2,1.06-.79,2.31-.2,3.53.1,1.44-.2,2.9.18,4.33l.12,1a.77.77,0,0,1,0,1.09,18.05,18.05,0,0,1-5.88-.21c3-.08,3.07-2.08,3.06-4.14,0-3.43,0-6.85,0-10.28,0-1.31,0-2.67-1.37-3.44,0-.6.36-.71.82-.7a82.45,82.45,0,0,1,8.32.14C296.46,146,296.85,146.13,297,146.66Z" transform="translate(0 -10.54)"/><path class="cls-4" d="M278.27,147.37l-3.66-.14a100,100,0,0,0,0,16.42.54.54,0,0,1,.23.43c-.82.82-2-.05-2.86.62-.56.07-1.29.45-1.58-.28s.6-.89,1-1.32c.83-4.43.15-8.91.33-13.36,0-.82.4-1.75-.36-2.48l-3.06-.13c.81-1.89,2.66-.43,3.82-1.19a17.59,17.59,0,0,1,3.08,0C276.06,146.72,278,145.12,278.27,147.37Z" transform="translate(0 -10.54)"/><path class="cls-4" d="M316,150.91a10.45,10.45,0,0,1,2.18-4.22c.67-.3,1,.42,1.48.54l1.81,3.12c-.66,1.05-.78,2.48-2.16,3a1.62,1.62,0,0,1-.69-.12c-.64-.76-.64-.76-1.33.9-1.22.77.06,1.83-.28,2.71a3.66,3.66,0,0,1,0,.74c-.15.82-.53,1.43-1.47,1.46-2.32-1.19-1.86-3.08-1.27-5,.25-.5-.11-1.24.63-1.55S316.07,151.75,316,150.91Z" transform="translate(0 -10.54)"/><path class="cls-4" d="M188.67,146.71c.47-.64,1-.46,1.5-.08.5,1.76.08,3.55.24,5.32,0,.47-.32,1.32.77,1l1.06-1.06a1,1,0,0,1,.74,1.13c-.54,1.16-1.53,2.07-1.89,3.34a3.72,3.72,0,0,0,0,3c.35,1.18,1.44,2,1.38,3.39-.17.39-.38.69-.86.4l-.51-.46c-1.39-.18-.34,1.22-1,1.52l-1.08.42c-.57-4.16-.11-8.33-.26-12.49,0-.27,0-.54,0-.81A7.77,7.77,0,0,0,189,148C188.8,147.62,188.88,147.12,188.67,146.71Z" transform="translate(0 -10.54)"/><path class="cls-4" d="M319.14,153.08c.94-.77,1-2.26,2.31-2.73,1.05,2.13,2.11,4.25,3.16,6.37a1.35,1.35,0,0,1-.53.82,2.65,2.65,0,0,1-1.56.49,2.68,2.68,0,0,1-1.1-.68,6.33,6.33,0,0,1-.44-.46,5.44,5.44,0,0,1-.58-.76,9.62,9.62,0,0,0-.93-1.27,2.3,2.3,0,0,1-.57-1.17A1.13,1.13,0,0,1,319.14,153.08Z" transform="translate(0 -10.54)"/><path class="cls-4" d="M198.64,152c2.35.44,2.56,2.45,3.12,4.22-.51.41.32,1.95-1.25,1.46.08.81,1.42.69,1.24,1.69a3.45,3.45,0,0,1-2,3.22c-.92.51-1.33,0-1.54-.8.82-2.72,1.26-5.42-.45-8A1.81,1.81,0,0,1,198.64,152Z" transform="translate(0 -10.54)"/><path class="cls-4" d="M314.26,154c.46,1.62-.12,3.5,1.25,4.89a.8.8,0,0,1,.2.92c-.21.31-.58.28-.88.41l-.86-.18c-1,0-1.59.43-1.56,1.5a7.91,7.91,0,0,1-3.29,2A66.25,66.25,0,0,1,314.26,154Z" transform="translate(0 -10.54)"/><path class="cls-4" d="M246,163.67c1.27.52,2.53,1.05,3.72-.17l1.85,0c3,0,6.25.59,7.7-3.43.14,4.28-.28,4.71-4.05,4.71-2.9,0-5.8,0-8.7,0C245.49,164.82,244.88,164.63,246,163.67Z" transform="translate(0 -10.54)"/><path class="cls-4" d="M275.16,146.21h-3.27a56.85,56.85,0,0,1-6,.43,2,2,0,0,1-.8-.49c.69-1.07,1.75-.46,2.6-.48,3.85-.08,7.7,0,11.55,0,.79,0,1.71-.09,1.64,1.09s.64,2.82-.27,3.45-.52-.85-.83-1.33c.35-1.66-.71-2.18-2-2.42C276.9,146.28,276,146.62,275.16,146.21Z" transform="translate(0 -10.54)"/><path class="cls-4" d="M198.61,161.44a1.12,1.12,0,0,0,1.18,1.18c-2.85,2.74-4.87,2.87-8.13.53l.64-.64C194.43,162.32,196.6,162.34,198.61,161.44Z" transform="translate(0 -10.54)"/><path class="cls-4" d="M227,147.22c.23.13.65.25.66.38.13,5,1.41,10-.29,15,0-4.18-.06-8.35-.12-12.53C227.19,149.11,227.05,148.17,227,147.22Z" transform="translate(0 -10.54)"/><path class="cls-4" d="M248.07,146.21c-.77,0-1.63-.32-2.19.53-.7-.2-1.59.27-2.16-.56.48-1,1.37-.53,2.05-.54,3.68,0,7.35,0,11,0,1.11,0,2.24-.1,1.79,1.6-1,.12-1.78-.78-2.79-.53C253.22,146.55,250.6,147.05,248.07,146.21Z" transform="translate(0 -10.54)"/><path class="cls-4" d="M253.85,154.69l1.08-.54c1-.36.84-1.61,1.85-2.47.55,2.35.25,4.41.23,6.7-1.46-.51-.74-2-1.57-2.58-.31-.73-1-.6-1.61-.74-.14-.09-.18-.18-.13-.26S253.8,154.69,253.85,154.69Z" transform="translate(0 -10.54)"/><path class="cls-4" d="M274.57,163.65c-.91-.86-.53-2-.54-3q-.06-5.5,0-11c0-.82-.36-1.78.58-2.4Q274.58,155.44,274.57,163.65Z" transform="translate(0 -10.54)"/><path class="cls-4" d="M198.64,152l-.55,1.62a17.5,17.5,0,0,1-5.29-.66l-.56-1.06c.29-.73,1-.42,1.48-.53a9,9,0,0,1,4,0Z" transform="translate(0 -10.54)"/><path class="cls-4" d="M256.5,146.2c1-.26,1.56.33,2.09,1a4.6,4.6,0,0,1-.21,2.75c-2.18-4.64-5.95-2.56-9.16-2.61l-.13-.68C251.53,146,254.06,146.86,256.5,146.2Z" transform="translate(0 -10.54)"/><path class="cls-4" d="M271.29,147.26a1.3,1.3,0,0,1,.64,1.33v13.15a1.38,1.38,0,0,1-.61,1.36Z" transform="translate(0 -10.54)"/><path class="cls-4" d="M189.08,150.93v13.7c-.62,0-.64-.48-.64-.91q.06-6.39.13-12.79A.31.31,0,0,1,189.08,150.93Z" transform="translate(0 -10.54)"/><path class="cls-4" d="M234.46,146.07c-2.55.51-5.26-.63-7.74.73l-2.24-.35,0-.66C227.82,145.66,231.13,145.28,234.46,146.07Z" transform="translate(0 -10.54)"/><path class="cls-4" d="M296,146.06c-3,.51-6.16-.58-9.14.56-.51,0-1.17.26-1.38-.38s.41-.66.81-.64C289.51,145.82,292.79,145.12,296,146.06Z" transform="translate(0 -10.54)"/><path class="cls-4" d="M275.16,146.21c1.06,0,2.12,0,3.18,0,2.26-.06,2.7.85,1.46,2.68l-1.53-1.49C277.61,146,275.94,147.29,275.16,146.21Z" transform="translate(0 -10.54)"/><path class="cls-4" d="M326,159.41c.37,1.26,2,1.94,1.69,3.61a3,3,0,0,1-2.22-1.26C325.24,160.87,323.63,159.68,326,159.41Z" transform="translate(0 -10.54)"/><path class="cls-4" d="M265.61,146.22h6.28c-1,1.09-2.62-.13-3.66.91l-1.54.12C265.7,147.56,265.06,147.51,265.61,146.22Z" transform="translate(0 -10.54)"/><path class="cls-4" d="M191.18,153c-.79.91-1.23,1-1.16-.44.1-2,.1-4,.15-5.92.88,1.28.17,2.72.44,4.05C190.77,151.45,190,152.46,191.18,153Z" transform="translate(0 -10.54)"/><path class="cls-4" d="M326,159.41c-1.8.41-.05,1.63-.53,2.35a4.5,4.5,0,0,1-2.14-1.41,1,1,0,0,1,0-.71c.56-.71.82-1.95,2.19-1.29Z" transform="translate(0 -10.54)"/><path class="cls-4" d="M249.17,162.46a7.63,7.63,0,0,1,.07-6.72Z" transform="translate(0 -10.54)"/><path class="cls-4" d="M201.75,159.4c-.93-.49-2-1-1.37-2.27.06-.12,1.06-.29,1.38-.88A7.6,7.6,0,0,1,201.75,159.4Z" transform="translate(0 -10.54)"/><path class="cls-4" d="M230,162.53a7,7,0,0,1,.09-6.26Z" transform="translate(0 -10.54)"/><path class="cls-4" d="M325.56,158.35c-1.13,0-1.16,1.33-2.05,1.6a1.21,1.21,0,0,1-.43-.63,2.26,2.26,0,0,1,.9-2l.63-.57A1.29,1.29,0,0,1,325.56,158.35Z" transform="translate(0 -10.54)"/><path class="cls-4" d="M291,162.58c-.91-1.51-.21-3.18-.47-4.75a1.15,1.15,0,0,1,0-1.6h.5Z" transform="translate(0 -10.54)"/><path class="cls-4" d="M300.09,149.34c-1.83.09-1.9-1.62-2.66-2.61C298.71,147.2,300.07,147.59,300.09,149.34Z" transform="translate(0 -10.54)"/><path class="cls-4" d="M312.41,161.58c-.58-.37-.85-.91-.28-1.41s1.18-1.11,1.84-.09C313.46,160.6,313.25,161.41,312.41,161.58Z" transform="translate(0 -10.54)"/><path class="cls-4" d="M265.61,146.22c0,.74.43,1,1.08,1-.23.71-.56,1.83-1.35,1.43s-.37-1.63-.23-2.52A4,4,0,0,1,265.61,146.22Z" transform="translate(0 -10.54)"/><path class="cls-4" d="M231,156.12l-.53-.92a1.75,1.75,0,0,1,2.66.05v.95A3.38,3.38,0,0,1,231,156.12Z" transform="translate(0 -10.54)"/><path class="cls-4" d="M249.13,152c-.82-1.6-1.07-3.19.13-4.73C249.22,148.84,249.17,150.42,249.13,152Z" transform="translate(0 -10.54)"/><path class="cls-4" d="M323.4,159.56a.38.38,0,0,0,.11.39c-.05.13-.09.27-.14.4h-4.16a.53.53,0,0,1,.18-.67c1.09-.53,2.29-.34,3.44-.52A.63.63,0,0,1,323.4,159.56Z" transform="translate(0 -10.54)"/><path class="cls-4" d="M319.21,159.94v.4a14.62,14.62,0,0,1-4.38-.08l.48-.39C316.62,159.13,317.93,158.88,319.21,159.94Z" transform="translate(0 -10.54)"/><path class="cls-4" d="M189.08,150.93h-.51a11.3,11.3,0,0,1,.1-4.22l.41,1a4.31,4.31,0,0,1,0,3.18Z" transform="translate(0 -10.54)"/><path class="cls-4" d="M271.94,164.7c.8-.89,1.92-.34,2.86-.62l1.32.15-.05.47Z" transform="translate(0 -10.54)"/><path class="cls-4" d="M197.73,151.39h-4A3.75,3.75,0,0,1,197.73,151.39Z" transform="translate(0 -10.54)"/><path class="cls-4" d="M214.58,152a1.36,1.36,0,0,0-1.53,0c.08-1.41,1.15-1,1.81-.83C215.36,151.33,215,151.8,214.58,152Z" transform="translate(0 -10.54)"/><path class="cls-4" d="M228.39,164.7c.78-.89,1.87-.34,2.79-.59.24,0,.55,0,.71.16a.28.28,0,0,1-.21.49C230.58,164.75,229.49,164.72,228.39,164.7Z" transform="translate(0 -10.54)"/><path class="cls-4" d="M319.64,147.23c-.79.64-1-.3-1.48-.54,0-.46.25-1,.6-1C319.43,145.88,319.5,146.63,319.64,147.23Z" transform="translate(0 -10.54)"/><path class="cls-4" d="M316,150.91c1,1.5-.28,1.36-1.09,1.58Z" transform="translate(0 -10.54)"/><path class="cls-4" d="M190.16,164.21c.33-.5-.86-2,1-1.52C190.22,162.81,191.19,164.16,190.16,164.21Z" transform="translate(0 -10.54)"/><path class="cls-4" d="M209.33,165.51c.63-.47-1.67-1.87.59-1.81C209.79,164.33,210,165.07,209.33,165.51Z" transform="translate(0 -10.54)"/><path class="cls-4" d="M291.06,164.69c0-.36,0-.73,0-1.09.48.7,1.43.27,2.18.9A2.91,2.91,0,0,1,291.06,164.69Z" transform="translate(0 -10.54)"/><path class="cls-4" d="M234.94,154.11l.81-1.76C236.26,153.3,236.17,154,234.94,154.11Z" transform="translate(0 -10.54)"/><path class="cls-4" d="M291.14,147.25a50.16,50.16,0,0,0,.1,8.49l-.25-.11a.7.7,0,0,1-.46-.46C290.88,152.54,289.75,149.8,291.14,147.25Z" transform="translate(0 -10.54)"/><path class="cls-4" d="M290.53,155.17c.15.15.3.31.46.46l-.46.6c0,.53,0,1.06,0,1.6-1.1-.61-1.1-.61-1.3-3.45Z" transform="translate(0 -10.54)"/><path class="cls-4" d="M256.5,146.2c-2.42,1-4.95.19-7.41.48a1,1,0,0,1-1-.47Z" transform="translate(0 -10.54)"/><path class="cls-4" d="M253.85,154.69a.93.93,0,0,1,0,.37h-3.57v-.37Z" transform="translate(0 -10.54)"/><path class="cls-4" d="M294.23,147.12l-3.14.17A2.36,2.36,0,0,1,294.23,147.12Z" transform="translate(0 -10.54)"/><path class="cls-4" d="M319.21,159.94l-3.9-.07c.07-.31.13-.63.2-.94a2.06,2.06,0,0,0,1.16-1.65,2.23,2.23,0,0,0,.09-.68.91.91,0,0,1,.4-.54,1.07,1.07,0,0,1,.66.09,1.37,1.37,0,0,1,.57,1.1c.05.17,0,.3-.1.37.25-.17.1-.43.15-.65a4.14,4.14,0,0,1,1.33-2.43,2.07,2.07,0,0,1,1.08,1.67c-.62.82.39.3.46.56v0c.51.67.31,1.75,1.25,2.18a1.09,1.09,0,0,1,.36.56C321.76,160.31,320.44,159.77,319.21,159.94Z" transform="translate(0 -10.54)"/><path class="cls-4" d="M317.08,154.11c-.08-1.29.07-2.47,1.62-3.09.28.72-.74,1.46,0,2.1l.19.31c0,.12-.07.23-.1.35a2.29,2.29,0,0,1-.31.65,1.15,1.15,0,0,1-1,.45C317.15,154.75,316.85,154.58,317.08,154.11Z" transform="translate(0 -10.54)"/><path class="cls-4" d="M317.08,154.11l.67.58a3,3,0,0,1-.16,1.48,1.48,1.48,0,0,1-.46.08,1.17,1.17,0,0,0-.32.41l-.21.15c-1-.54.14-1.63-.68-2.48C315.46,153.85,316.7,154.38,317.08,154.11Z" transform="translate(0 -10.54)"/><path class="cls-4" d="M318.65,153.57c0-.15,0-.3.05-.45a.83.83,0,0,1,.44,0,.64.64,0,0,1,0,.47A.3.3,0,0,1,318.65,153.57Z" transform="translate(0 -10.54)"/><path class="cls-4" d="M317,156.67l-.37.61a1.49,1.49,0,0,1-.07-.47l0,0A.36.36,0,0,1,317,156.67Z" transform="translate(0 -10.54)"/><path class="cls-4" d="M190.59,156.24v3.17A2.61,2.61,0,0,1,190.59,156.24Z" transform="translate(0 -10.54)"/><path class="cls-4" d="M189.08,150.93v-3.18A2.4,2.4,0,0,1,189.08,150.93Z" transform="translate(0 -10.54)"/><path class="cls-4" d="M318.65,153.57a3.85,3.85,0,0,0,.48,0c.21.33.42.66.64,1,.18,1.14-.57,1.91-1.1,2.76-.18.23-.35.24-.52,0s-.38-.74-.56-1.12a1,1,0,0,1,.16-1.48l.49-.58c.13-.19.26-.37.4-.55Z" transform="translate(0 -10.54)"/><path class="cls-4" d="M322.53,159.35c-2-.12-1.33-1.46-1.21-2.56l1.13,1A1.18,1.18,0,0,1,322.53,159.35Z" transform="translate(0 -10.54)"/><path class="cls-4" d="M322.53,159.35l-.08-1.54,1.53-.52c-.19.76-.38,1.51-.58,2.27l-.23-.05-.24,0A.45.45,0,0,0,322.53,159.35Z" transform="translate(0 -10.54)"/><path class="cls-4" d="M321.31,156.77l-1.78,1.33c-.18-1.17.67-1.47,1.32-1.89Z" transform="translate(0 -10.54)"/><path class="cls-4" d="M318.15,157.29h.52c-.12.63.31,1.42-.53,1.89C317.36,158.53,318.33,157.91,318.15,157.29Z" transform="translate(0 -10.54)"/><path class="cls-4" d="M317,156.67l-.46.16c.18-.2.37-.39.55-.58A1,1,0,0,0,317,156.67Z" transform="translate(0 -10.54)"/><path class="cls-4" d="M318.64,153.56l-.4.55Z" transform="translate(0 -10.54)"/><text class="cls-3" transform="translate(312.2 90.16)">!</text></g></g></svg>