<svg xmlns="http://www.w3.org/2000/svg" viewBox="0 0 279.94 143.61" fill="currentColor"><g id="Layer_2" data-name="Layer 2"><g id="Layer_1-2" data-name="Layer 1"><path d="M199.9,136.7l.95,1.3c-.66.63-1.6-.06-2.28.48h-3.35c.9-.54,2-.59,2.48-1.72.64-4,.12-7.93.17-11.89,0-.3-.26-.5-.47-.7a.34.34,0,0,1-.2-.34c-.09-.62.31-.74.78-.73a43,43,0,0,1,5.56.13c1.19.62,2.69.76,3.31,2.25,1.4,3.4-.55,6.11-4.37,6a.77.77,0,0,1-.2-.83,3.07,3.07,0,0,1,1.32-1.15,1.11,1.11,0,0,0,.55-1.39c-.68-3.18-1-3.44-3.87-3.36a9.57,9.57,0,0,0,0,5.33,3.73,3.73,0,0,1,.33.48,1,1,0,0,1,.12.85l-.76.12A9.28,9.28,0,0,0,199.9,136.7Z"/><path d="M187.26,128.08a45.58,45.58,0,0,1-3.82,9.59c-.12.17-1-.41-.43.46.22.31,0,.68,0,1-.45,1.28-.9,2.55-1.37,3.82-.26.71-.88.72-1.44.58s-.42-.56-.2-.88c3-4.25.25-7.93-1.18-11.74-.43-1.13-.93-2.24-1.42-3.41,1.26-.47,1.88-.18,2.31,1.16.82,2.49,1.89,4.89,3,7.68l3.35-8.28C186.43,127.38,186.85,127.32,187.26,128.08Z"/><path d="M257.28,125.91a3.26,3.26,0,0,1-1.87,4.52c-1.6.71-1.27,1.32-.43,2.22,1.68,1.79,2.23,4.61,5.25,5.27-2.12,1.12-3.41.91-4.51-.6a47.48,47.48,0,0,1-3.34-4.7,1.94,1.94,0,0,0-2.52-1.08.32.32,0,0,1-.49,0,.82.82,0,0,1,.38-.76l.49-.34A3.08,3.08,0,0,1,251,130c3.39-1.14,3.62-1.6,2.62-5.11.06-.69-.12-1.62,1.13-1.15a.93.93,0,0,1,.37.06C255.88,124.43,256.51,125.24,257.28,125.91Z"/><path d="M215.58,136.65l.43.85c-.91,1-1.51,1.05-3,.14a55.42,55.42,0,0,0-.07-13.86c.05-1.21,1-.49,1.5-.68a2.38,2.38,0,0,1,1.22.54.64.64,0,0,1,0,.64l0-.07a5.18,5.18,0,0,0-.11,3.87c0,1.38.53,2,2,1.81a19.26,19.26,0,0,1,2.74,0c0,.78-.55.54-1,.61-.87,0-1.74,0-3,0,.07,0,.25.26.34.22.9-.41,1.86-.09,2.79-.19.49.11,1.3-.33,1.2.72a14.69,14.69,0,0,0-5.08-.05A10.11,10.11,0,0,0,215.58,136.65Z"/><path d="M254.73,123.71c-.79-.19-.57.73-1,.92a2,2,0,0,1-1.37-.16,2,2,0,0,0-2,.1,2.82,2.82,0,0,0-.27.48c-.25,1.75.17,3.53-.27,5.26-1.67.87-.65,1.89-.16,2.89a18.32,18.32,0,0,0,.14,3.55l.1.83a.63.63,0,0,1,0,.9,15.17,15.17,0,0,1-4.82-.17c2.45-.08,2.52-1.71,2.52-3.4,0-2.8,0-5.61,0-8.41,0-1.08,0-2.19-1.13-2.82,0-.5.3-.58.68-.58,2.27.05,4.54-.15,6.81.12C254.3,123.19,254.62,123.28,254.73,123.71Z"/><path d="M239.41,124.3l-3-.12a82.62,82.62,0,0,0,0,13.44.46.46,0,0,1,.19.36c-.67.67-1.65,0-2.34.5-.46.06-1.06.37-1.3-.22s.5-.74.79-1.09c.68-3.63.13-7.29.27-10.93,0-.67.33-1.44-.3-2l-2.5-.1c.66-1.55,2.18-.35,3.13-1a15.15,15.15,0,0,1,2.52,0C237.6,123.76,239.21,122.45,239.41,124.3Z"/><path d="M270.29,127.2a8.37,8.37,0,0,1,1.79-3.46c.54-.25.79.34,1.21.44l1.47,2.56c-.53.85-.63,2-1.76,2.46a1.37,1.37,0,0,1-.57-.1c-.52-.63-.52-.63-1.08.74-1,.63,0,1.5-.24,2.22a3,3,0,0,1,0,.6c-.13.68-.44,1.17-1.21,1.2-1.9-1-1.53-2.52-1-4.1.2-.41-.09-1,.51-1.27S270.36,127.88,270.29,127.2Z"/><path d="M166,123.75c.39-.53.81-.37,1.23-.06.42,1.44.07,2.91.2,4.36,0,.37-.26,1.08.63.84L169,128a.84.84,0,0,1,.6.92,18.87,18.87,0,0,0-1.54,2.74,3,3,0,0,0,0,2.42c.28,1,1.18,1.68,1.13,2.78-.14.31-.31.56-.71.33l-.41-.38c-1.14-.15-.29,1-.82,1.24l-.88.35c-.47-3.41-.09-6.83-.21-10.23v-.66a6.31,6.31,0,0,0,.14-2.7C166.15,124.5,166.22,124.09,166,123.75Z"/><path d="M272.88,129c.77-.63.82-1.86,1.88-2.23.87,1.73,1.73,3.47,2.6,5.21a1.14,1.14,0,0,1-.44.67,1.43,1.43,0,0,1-2.17-.16,3.23,3.23,0,0,1-.37-.37,4.81,4.81,0,0,1-.47-.62,8.74,8.74,0,0,0-.77-1,1.87,1.87,0,0,1-.46-1A.82.82,0,0,1,272.88,129Z"/><path d="M174.21,128.11c1.92.36,2.1,2,2.55,3.45-.41.34.27,1.6-1,1.2.06.66,1.16.57,1,1.38a2.82,2.82,0,0,1-1.6,2.64c-.75.41-1.08,0-1.26-.66.67-2.22,1-4.44-.37-6.55A1.48,1.48,0,0,1,174.21,128.11Z"/><path d="M268.88,129.76c.38,1.32-.1,2.86,1,4a.63.63,0,0,1,.16.75c-.17.26-.47.23-.72.34l-.7-.15c-.82,0-1.3.35-1.27,1.23a6.49,6.49,0,0,1-2.7,1.6A54.69,54.69,0,0,1,268.88,129.76Z"/><path d="M213,137.64c1,.43,2.08.86,3-.14l1.51,0c2.48,0,5.12.48,6.31-2.81.11,3.51-.23,3.87-3.32,3.87h-7.12C212.57,138.58,212.07,138.42,213,137.64Z"/><path d="M236.87,123.34h-2.68a47.27,47.27,0,0,1-4.9.35,1.6,1.6,0,0,1-.65-.39c.56-.89,1.42-.38,2.12-.4,3.15-.06,6.31,0,9.46,0,.65,0,1.4-.07,1.35.9s.52,2.3-.23,2.82-.42-.69-.67-1.08c.28-1.37-.59-1.79-1.68-2C238.29,123.4,237.55,123.68,236.87,123.34Z"/><path d="M174.19,135.82a.91.91,0,0,0,1,1c-2.33,2.24-4,2.35-6.66.44l.52-.53A16,16,0,0,0,174.19,135.82Z"/><path d="M197.4,124.17c.18.11.53.2.54.31.11,4.1,1.15,8.21-.24,12.28,0-3.42,0-6.84-.1-10.26C197.59,125.72,197.47,125,197.4,124.17Z"/><path d="M214.68,123.34c-.63,0-1.33-.26-1.79.44-.58-.17-1.3.22-1.77-.46.39-.82,1.13-.44,1.68-.44,3,0,6,0,9,0,.91,0,1.83-.08,1.46,1.31-.8.1-1.45-.64-2.28-.43C218.9,123.62,216.76,124,214.68,123.34Z"/><path d="M219.42,130.28l.88-.43c.82-.3.69-1.32,1.52-2a22,22,0,0,1,.18,5.49c-1.19-.42-.6-1.65-1.28-2.12-.26-.6-.84-.49-1.32-.6-.11-.07-.15-.14-.11-.21S219.37,130.28,219.42,130.28Z"/><path d="M236.38,137.62c-.74-.7-.43-1.62-.44-2.44,0-3,0-6,0-9,0-.67-.3-1.46.47-2Z"/><path d="M174.21,128.11l-.45,1.32a14.07,14.07,0,0,1-4.33-.54L169,128c.24-.6.79-.35,1.21-.44a7.46,7.46,0,0,1,3.29,0Z"/><path d="M221.58,123.34c.81-.22,1.28.26,1.71.83a3.64,3.64,0,0,1-.17,2.25c-1.78-3.8-4.86-2.09-7.49-2.14l-.11-.55C217.51,123.16,219.59,123.88,221.58,123.34Z"/><path d="M233.69,124.2a1.06,1.06,0,0,1,.53,1.09v10.77a1.13,1.13,0,0,1-.5,1.11Z"/><path d="M166.38,127.21v11.22c-.5,0-.52-.4-.52-.75,0-3.49.07-7,.1-10.47A.25.25,0,0,1,166.38,127.21Z"/><path d="M203.54,123.23c-2.09.41-4.31-.51-6.34.6l-1.84-.29,0-.54C198.1,122.9,200.81,122.58,203.54,123.23Z"/><path d="M253.92,123.22c-2.48.42-5-.48-7.49.46-.42,0-1,.21-1.13-.31s.34-.54.67-.52C248.62,123,251.3,122.45,253.92,123.22Z"/><path d="M236.87,123.34c.86,0,1.73,0,2.6,0,1.85,0,2.21.7,1.2,2.2l-1.26-1.22C238.87,123.17,237.5,124.23,236.87,123.34Z"/><path d="M278.53,134.15c.29,1,1.65,1.59,1.37,3a2.45,2.45,0,0,1-1.81-1C277.87,135.35,276.55,134.38,278.53,134.15Z"/><path d="M229.05,123.35h5.14c-.84.89-2.15-.11-3,.75l-1.26.09C229.12,124.45,228.59,124.41,229.05,123.35Z"/><path d="M168.1,128.89c-.65.75-1,.87-.95-.36.08-1.61.09-3.23.12-4.84.72,1,.14,2.22.36,3.31C167.76,127.64,167.16,128.46,168.1,128.89Z"/><path d="M278.53,134.15c-1.48.34,0,1.34-.44,1.92a3.57,3.57,0,0,1-1.75-1.15.78.78,0,0,1,0-.58c.46-.58.67-1.6,1.79-1.06Z"/><path d="M215.58,136.65a6.27,6.27,0,0,1,.06-5.51Z"/><path d="M176.75,134.14c-.76-.4-1.6-.8-1.12-1.85.05-.1.88-.24,1.13-.73A6.07,6.07,0,0,1,176.75,134.14Z"/><path d="M199.9,136.7a5.7,5.7,0,0,1,.07-5.12C199.94,133.29,199.92,135,199.9,136.7Z"/><path d="M278.13,133.28c-.92,0-.95,1.09-1.68,1.31a1,1,0,0,1-.35-.51,1.83,1.83,0,0,1,.74-1.66l.52-.47A1.06,1.06,0,0,1,278.13,133.28Z"/><path d="M249.8,136.75c-.75-1.24-.17-2.6-.38-3.89a1,1,0,0,1,0-1.31h.41Z"/><path d="M257.28,125.91c-1.5.07-1.56-1.33-2.18-2.14C256.15,124.15,257.26,124.47,257.28,125.91Z"/><path d="M267.37,135.93c-.48-.31-.7-.75-.24-1.16s1-.91,1.51-.07C268.23,135.12,268.05,135.79,267.37,135.93Z"/><path d="M229.05,123.35c0,.61.35.81.88.84-.19.59-.46,1.5-1.11,1.18s-.3-1.34-.18-2.06A2.85,2.85,0,0,1,229.05,123.35Z"/><path d="M200.73,131.46l-.43-.76a1.43,1.43,0,0,1,2.18.05v.78A2.91,2.91,0,0,1,200.73,131.46Z"/><path d="M215.55,128.08a3.34,3.34,0,0,1,.11-3.87C215.62,125.5,215.59,126.79,215.55,128.08Z"/><path d="M276.36,134.28a.3.3,0,0,0,.09.31c0,.11-.07.22-.11.34l-3.41,0a.42.42,0,0,1,.15-.54,9.26,9.26,0,0,1,2.81-.43A.5.5,0,0,1,276.36,134.28Z"/><path d="M272.93,134.58v.33a12,12,0,0,1-3.59-.06l.4-.32A2.58,2.58,0,0,1,272.93,134.58Z"/><path d="M166.38,127.21H166a9.36,9.36,0,0,1,.08-3.46l.34.85a3.56,3.56,0,0,1,0,2.61Z"/><path d="M234.23,138.48c.66-.73,1.57-.28,2.34-.5l1.08.12,0,.38Z"/><path d="M173.47,127.59h-3.29A3.08,3.08,0,0,1,173.47,127.59Z"/><path d="M187.26,128.08a1.12,1.12,0,0,0-1.25,0c.06-1.14.94-.85,1.48-.67S187.6,127.92,187.26,128.08Z"/><path d="M198.57,138.48c.64-.72,1.53-.27,2.28-.48.2,0,.45,0,.59.13a.23.23,0,0,1-.18.4C200.36,138.53,199.47,138.5,198.57,138.48Z"/><path d="M273.29,124.18c-.65.52-.83-.25-1.21-.44,0-.38.19-.86.49-.79C273.11,123.08,273.17,123.69,273.29,124.18Z"/><path d="M270.29,127.2c.85,1.22-.23,1.11-.9,1.29Z"/><path d="M167.26,138.08c.28-.41-.7-1.63.82-1.24C167.31,136.93,168.11,138,167.26,138.08Z"/><path d="M183,139.14c.52-.37-1.37-1.53.48-1.47C183.34,138.18,183.53,138.78,183,139.14Z"/><path d="M249.88,138.48l0-.9c.39.58,1.17.23,1.78.74A2.44,2.44,0,0,1,249.88,138.48Z"/><path d="M200.08,124.23c-.12,2.16-.44,4.33.18,6.47-.88-.17-.82-.84-.83-1.5,0-1.43,0-2.86-.1-4.29C199.28,124.24,199.62,124.23,200.08,124.23Z"/><path d="M203.93,129.82l.66-1.45C205,129.15,204.94,129.7,203.93,129.82Z"/><path d="M250,124.19a41.48,41.48,0,0,0,.08,7l-.21-.09a.61.61,0,0,1-.37-.38C249.74,128.53,248.81,126.28,250,124.19Z"/><path d="M249.45,130.68l.37.38c-.12.16-.25.32-.37.49l0,1.31c-.9-.51-.9-.51-1.07-2.83Z"/><path d="M221.58,123.34c-2,.8-4.05.15-6.06.39a.86.86,0,0,1-.84-.39Z"/><path d="M219.42,130.28a1.06,1.06,0,0,1,0,.31h-2.92v-.31Z"/><path d="M252.48,124.09l-2.58.14A1.93,1.93,0,0,1,252.48,124.09Z"/><path d="M272.93,134.58l-3.19-.05c.05-.26.11-.52.16-.77a1.67,1.67,0,0,0,1-1.35,1.51,1.51,0,0,0,.07-.56.81.81,0,0,1,.33-.44.84.84,0,0,1,.54.08,1.07,1.07,0,0,1,.47.89c0,.14,0,.25-.08.3.2-.13.08-.34.12-.53a3.52,3.52,0,0,1,1.09-2,1.74,1.74,0,0,1,.89,1.37c-.52.67.32.25.37.46h0c.42.56.25,1.44,1,1.79a1,1,0,0,1,.29.46C275,134.89,273.94,134.44,272.93,134.58Z"/><path d="M271.19,129.81a2.16,2.16,0,0,1,1.33-2.53c.22.59-.61,1.2,0,1.72l.15.26a2.29,2.29,0,0,0-.08.28,1.92,1.92,0,0,1-.26.54.94.94,0,0,1-.78.36C271.24,130.34,271,130.2,271.19,129.81Z"/><path d="M271.19,129.81l.54.48a2.28,2.28,0,0,1-.13,1.21,1.15,1.15,0,0,1-.37.06,1,1,0,0,0-.26.34l-.17.12c-.84-.44.11-1.33-.56-2C269.86,129.6,270.88,130,271.19,129.81Z"/><path d="M272.47,129.37c0-.12,0-.25,0-.37a.72.72,0,0,1,.36,0,.58.58,0,0,1,0,.39A.26.26,0,0,1,272.47,129.37Z"/><path d="M271.15,131.91l-.3.5a1.74,1.74,0,0,1-.05-.39l0,0A.28.28,0,0,1,271.15,131.91Z"/><path d="M167.62,131.55v2.6A2.13,2.13,0,0,1,167.62,131.55Z"/><path d="M166.38,127.21V124.6A2,2,0,0,1,166.38,127.21Z"/><path d="M272.47,129.37h.4c.17.27.34.54.52.8.15.93-.46,1.57-.9,2.26-.14.19-.29.2-.42,0l-.47-.92a.84.84,0,0,1,.13-1.21l.41-.48q.15-.23.33-.45Z"/><path d="M275.65,134.11c-1.62-.1-1.08-1.21-1-2.11l.92.84A1,1,0,0,1,275.65,134.11Z"/><path d="M275.65,134.11l-.07-1.27,1.26-.42-.48,1.86-.18-.05-.2,0A.33.33,0,0,0,275.65,134.11Z"/><path d="M274.65,132l-1.46,1.09c-.14-1,.55-1.2,1.09-1.55Z"/><path d="M272.07,132.42h.42c-.1.52.26,1.16-.44,1.55C271.41,133.43,272.21,132.93,272.07,132.42Z"/><path d="M271.15,131.91l-.37.13.45-.48A1.05,1.05,0,0,0,271.15,131.91Z"/><path d="M272.47,129.36l-.33.45Z"/><path d="M0,109.62c.89-2.29,2-4.44,4.16-5.82.91-.58.62-1.41.62-2.17q0-17.49,0-35c0-3.33.1-3.43,3.4-3.43H45.23c2.83,0,2.83,0,2.84,2.82,0,3.42,0,3.42-3.35,3.42-10.66,0-21.31,0-32,0-1.63,0-2.17.31-2.15,2.07.09,9.83.05,19.67,0,29.5,0,1.25.06,2,1.58,2.73,3.29,1.5,4.94,6.15,3.58,9.8a7.76,7.76,0,0,1-8,5.28c-4.45-.17-6.38-3.13-7.82-6.72Zm11,1.26A2.71,2.71,0,0,0,8.12,108a2.79,2.79,0,0,0-2.79,2.83,2.67,2.67,0,0,0,2.94,2.82A2.53,2.53,0,0,0,11,110.88Z"/><path d="M0,10.3c1.3-2,2-4.43,4.54-5.55,2-.87,5.81-.92,7.46.11,3.2,2,4.67,4.7,4.15,8.46-.35,2.5-2.07,4.09-3.89,5.43A3,3,0,0,0,11,21.62Q11,38.83,11,56c0,2.73,0,2.79-2.7,2.77-4,0-3.45.41-3.45-3.46q0-17.08,0-34.18A3,3,0,0,0,3.7,18.36,10.11,10.11,0,0,1,0,13.15ZM8.68,9.08c-2.42.05-3.34.93-3.35,2.78a2.82,2.82,0,0,0,2.94,2.88A2.86,2.86,0,0,0,11,11.61,2.3,2.3,0,0,0,8.68,9.08Z"/><path d="M276.1,73.39c-1.22,2.28-2.88,3.85-5.7,3.74a5.28,5.28,0,0,1-5.26-4.19,5.35,5.35,0,0,1,3.12-6.18,5.79,5.79,0,0,1,7,2.06c.28.43.22,1.08.81,1.32Z"/><path d="M93.28,43.86c7.87,0,15.74,0,23.61,0,1.43,0,1.87-.38,1.83-1.82-.1-3.39,0-6.78,0-10.17,0-3.17-1.46-4.56-4.64-4.56-14.66,0-29.32,0-44,0-1.64,0-2.33-.32-2.17-2.08a34.55,34.55,0,0,0,0-4.88c0-1.06.32-1.43,1.38-1.4,2.31.07,4.62,0,6.93,0H114.3c7.64,0,12.76,5.11,12.76,12.73,0,14.45,0,28.89,0,43.34,0,1.59-.39,2-2,2-15.06-.07-30.13,0-45.2,0a11.93,11.93,0,0,1-12-11.82c0-6.51.06-13,0-19.54,0-1.61.52-1.88,2-1.87C77.67,43.9,85.47,43.86,93.28,43.86Zm4,8.37c-6.51,0-13,0-19.53,0-1.35,0-1.7.38-1.67,1.69.09,3.45,0,6.91,0,10.37,0,3,1.52,4.57,4.46,4.57,12.14,0,24.27,0,36.41,0,1.4,0,1.7-.48,1.69-1.76-.07-4.4-.08-8.81,0-13.21,0-1.31-.31-1.73-1.67-1.71C110.47,52.27,103.89,52.23,97.32,52.23Z"/><path d="M262.14,19c-4.4,4.86-8.47,9.37-12.56,13.86s-8.35,9.27-12.63,13.8c-1,1.11-1,1.69,0,2.75,6.29,6.83,12.48,13.76,18.78,20.57,1.23,1.33,1.64,2.28.07,3.57a17.55,17.55,0,0,0-2,2.29c-1.49,1.71-2.27,1.74-3.76.11-6.36-7-12.81-13.83-19-20.9-1.86-2.12-3.72-3.13-6.56-2.91a87.26,87.26,0,0,1-10,0c-1.65-.07-2.17.32-2.15,2.07.12,7,0,14,.09,21,0,1.57-.45,2-1.94,1.87a27.09,27.09,0,0,0-4.68,0c-1.51.13-1.75-.48-1.75-1.84q.06-36.63,0-73.25c0-1.65.48-2.11,2-2a23.31,23.31,0,0,0,4.26,0c1.58-.14,2,.36,2,2-.07,13.09,0,26.18,0,39.27,0,2.58,0,2.58,2.64,2.58,3.73,0,7.47-.08,11.2,0a4.3,4.3,0,0,0,3.64-1.64c6.64-7.34,13.37-14.6,20-21.92a3.51,3.51,0,0,1,3-1.33C255.79,19.09,258.75,19,262.14,19Z"/><path d="M170.49,77.06H148.3a12,12,0,0,1-12.09-11.94q-.06-17,0-34A12,12,0,0,1,148.37,19c14.93,0,29.85,0,44.78,0,1.59,0,2.17.4,2,2a22.26,22.26,0,0,0,0,4.47c.15,1.59-.48,1.88-1.95,1.87-13.37-.05-26.73,0-40.1,0-1.49,0-3,0-4.48,0-2.56.06-4.11,1.5-4.12,4q0,16.68,0,33.37c0,2.71,1.66,4.12,4.68,4.12h35.21c3.06,0,6.11.09,9.16,0,1.6-.08,2,.49,1.87,2a23.84,23.84,0,0,0,0,4.47c.17,1.62-.5,1.87-1.95,1.85C185.83,77,178.16,77.06,170.49,77.06Z"/><path d="M35.88,59.16c-6.45,0-12.89,0-19.33,0-1.53,0-2-.44-2-2,0-4.22,0-4.22,4.12-4.22,10.38,0,20.75,0,31.12,0,1.5,0,1.92-.32,1.91-1.87q-.12-15,0-30.09a3.45,3.45,0,0,0-1.6-3.23c-2.5-1.66-3.08-4.19-2.86-6.91a7.94,7.94,0,0,1,4.9-6.66c2.9-1.35,8.12.4,9.54,2.89,2.43,4.27,1.92,8.1-1.59,10.83a5.54,5.54,0,0,0-2.35,5c.16,11,.07,22.09.07,33.14,0,2.71-.31,3-3.06,3ZM58.17,11.89a2.73,2.73,0,0,0-2.8-2.8,2.79,2.79,0,0,0-3.15,2.65,3.06,3.06,0,0,0,2.9,3A3.11,3.11,0,0,0,58.17,11.89Z"/><path d="M259.91,71.46c-1.91,4.62-4.5,8.9-6.67,13.39-1,2.12-2.13,4.2-3.3,6.5,1.37-.12,2.54-.31,3.71-.32,4.51,0,7.51,2.9,7.77,7.37.08,1.35-.23,1.92-1.73,1.88-3.73-.1-7.47,0-11.19,0-1.57,0-1.8.52-1.56,1.91.8,4.75,7.06,7.14,11.33,4.28a9.8,9.8,0,0,0,1-.74c.56-.5,1-.23,1.4.21s-.12.82-.41,1.11c-3.47,3.46-12.57,3.45-15.16-3.35-.13-.37-.29-.72-.63-1.53l-8.91,17.27c-1.7-3-3.28-5.72-4.83-8.47-1.77-3.11-3.57-6.2-5.25-9.36a2.4,2.4,0,0,0-2.69-1.21c-3.72.36-7.44.17-11.17.16-1.44,0-1.52.55-1.26,1.72,1.12,5.2,7.28,7.36,11.76,4.06.68-.5,1.31-1.17,2-.2s-.46,1.11-.89,1.46c-2.87,2.34-7.64,2.57-11.07.61-3.19-1.83-4.59-5.32-4-9.88a8.49,8.49,0,0,1,6.46-6.81A9.24,9.24,0,0,1,223,93.7c3.08,2.59,6.71,4.52,10.09,6.75,1,.65,1.46,0,2-.63L258,73.16a6.17,6.17,0,0,1,1.83-1.84Zm-6.86,27.19c.56,0,1.23-.1,1.9-.1s1.35,0,2,.07c2.38.1,2.79-.51,1.8-2.68a6,6,0,0,0-6.35-3.32A6.93,6.93,0,0,0,247,97.5c-.17,1,.19,1.18,1.05,1.16C249.7,98.62,251.32,98.65,253.05,98.65Zm-36.62.12v0c1.49,0,3-.1,4.46,0,1.66.16,1.74-.65,1.45-1.9-.58-2.58-3.07-4.19-6.2-4-2.69.18-5.32,2.44-5.63,4.74-.12.92.18,1.2,1.06,1.17C213.19,98.74,214.81,98.77,216.43,98.77Z"/><path d="M57.85,83.66q0,8.84,0,17.68A2.28,2.28,0,0,0,59,103.62c4.38,3,5.37,7,3,11.37-2,3.72-6.71,4.68-10,3.19-5.69-2.59-6.49-9.46-1.72-13.51a3.7,3.7,0,0,0,1.44-3.07c-.07-11.79,0-23.58,0-35.37,0-2.59,0-2.6,2.63-2.61a13.45,13.45,0,0,0,1.42,0c1.63-.16,2.12.62,2.11,2.16C57.82,71.73,57.85,77.69,57.85,83.66Zm.32,27.27a3,3,0,0,0-6-.28,3.06,3.06,0,0,0,2.87,3A2.92,2.92,0,0,0,58.17,110.93Z"/><path d="M275,46.82c0,5.28,0,10.56,0,15.85,0,1.3-.31,1.81-1.69,1.74-2-.11-3.93-.07-5.89,0-1,0-1.44-.28-1.44-1.37q.06-16.26,0-32.52c0-1.15.54-1.35,1.49-1.34,1.9,0,3.8.09,5.69,0,1.41-.08,1.86.37,1.84,1.81C274.9,36.25,275,41.53,275,46.82Z"/><path d="M77.16,93.16c2-.68,2.68.1,3.17,1.68,1.18,3.85,2.55,7.64,3.9,11.61a4.86,4.86,0,0,0,1.06-2.34c1.1-3,2.12-6.14,3.25-9.18.33-.9.27-2.12,1.95-2.07s1.51,1.15,1.82,2c1.18,3.17,2.27,6.37,3.41,9.56.19.53.44,1,.87,2.09,1.17-3.34,2.16-6.18,3.15-9,.29-.83.54-1.67.83-2.5.75-2.19.75-2.19,3.22-1.89-1.89,5.38-3.79,10.73-5.63,16.1-.31.92-.92.87-1.59.82s-1.41.34-1.71-.62c-1.43-4.71-3.54-9.21-4.35-14.19-.94,4.53-2.76,8.77-4.12,13.15-.3,1-.55,1.74-2,1.75s-1.65-.85-2-1.8Q79.8,100.74,77.16,93.16Z"/><path d="M131.87,95.65c2.31-3.28,5.36-3.53,8.54-3A5.24,5.24,0,0,1,145,98.06c.09,3.58,0,7.18.05,10.77,0,1-.35,1.22-1.29,1.24s-1.21-.42-1.2-1.32c.05-3,0-6,0-9,0-3.57-1.45-5.2-4.49-5.24-3.72,0-6.07,1.94-6.14,5.27-.06,2.91,0,5.83,0,8.74,0,.92-.06,1.5-1.27,1.51s-1.21-.67-1.2-1.53q0-11,0-22c0-.77-.1-1.45,1.09-1.43s1.41.31,1.39,1.39C131.83,89.45,131.87,92.36,131.87,95.65Z"/><path d="M189.08,94.56c2.45-2.27,4.81-3.37,7.68-3.18,3.66.24,5.59,2.13,5.68,5.76s.17,7.19.22,10.78c0,.73.08,1.54-1.09,1.52-1,0-1.21-.5-1.2-1.41q0-5.09,0-10.17c0-3.1-1.57-4.79-4.28-4.82-3.73,0-6.7,2.09-6.77,5-.07,3.26,0,6.51,0,9.77,0,.88.18,1.82-1.25,1.76s-1-1-1-1.76Q187,96.91,186.94,86c0-.83-.32-1.85,1.17-1.79s.94,1.08.95,1.77C189.11,88.68,189.08,91.36,189.08,94.56Z"/><path d="M168.82,102.66v5.69c0,.57,0,1.09-.81,1.15s-1.11-.18-1.11-1c0-1.46-.64-.89-1.36-.42a8.62,8.62,0,0,1-9.37.56,5.21,5.21,0,0,1-2.91-5.19,5,5,0,0,1,3.68-4.4,18.47,18.47,0,0,1,8-.44c.64.07,1.45.48,1.86-.22s0-1.31-.23-1.95c-1.12-2.65-4.41-3.88-8-2.94-.78.2-1.53.53-2.31.77-.55.17-.89-.13-1.12-.6s0-.76.43-.93c3.24-1.29,6.55-2,9.82-.32a5.56,5.56,0,0,1,3.34,5.37c0,1.63,0,3.26,0,4.88Zm-6.69-2.91v-.11c-1.14.1-2.3.13-3.42.33a4.15,4.15,0,0,0-3.55,3.64c-.16,1.55,1.14,3.27,3,3.92a7.17,7.17,0,0,0,8.26-3.12A3,3,0,0,0,164,99.86C163.35,99.8,162.74,99.78,162.13,99.75Z"/><path d="M117.49,101.21c0-1.36-.09-2.72,0-4.07s-.36-2-1.79-1.79c-.72.08-1.64.36-1.67-1s.76-1.42,1.68-1.29c1.47.19,1.94-.43,1.77-1.82-.09-.74,0-1.49,0-2.24s.1-1.38,1.19-1.36,1.38.31,1.26,1.28a7.48,7.48,0,0,0,0,.82c0,3.17,0,3.19,3.1,3.29.83,0,1.39,0,1.42,1.15s-.59,1.32-1.51,1.24c-.33,0-.68,0-1,0-1.56-.24-2.13.31-2,1.95.14,2.57.11,5.16,0,7.73-.08,1.9.57,2.81,2.57,2.63.8-.07,1.76-.36,1.78,1.15s-.88,1.19-1.71,1.2c-3.74,0-5-1.2-5-5C117.48,103.78,117.49,102.5,117.49,101.21Z"/><path d="M179.25,109.62a9.19,9.19,0,0,1-9-6.69,9.73,9.73,0,0,1,3.88-10.13,8.35,8.35,0,0,1,10.45.91c.47.43,1.62.75.64,1.86s-1.3,0-1.79-.46a6.67,6.67,0,0,0-8.21-.9A7.57,7.57,0,0,0,172.5,103c1.9,5.15,7.65,6.33,11.32,2.29.51-.56.76-1,1.53-.3s.6,1.1,0,1.67C183.61,108.45,181.59,109.69,179.25,109.62Z"/><path d="M107.17,101.28c0-2.3,0-4.61,0-6.92,0-1,.13-1.48,1.3-1.47s1.18.49,1.18,1.36q0,7.23,0,14.45c0,.86-.07,1.36-1.16,1.37s-1.34-.48-1.31-1.46C107.21,106.17,107.17,103.72,107.17,101.28Z"/><path d="M206.47,100.47v7.71c0,.69.09,1.39-1,1.36s-1.08-.56-1.08-1.34c0-5.27,0-10.55,0-15.82,0-.69.09-1.18,1-1.17s1,.43,1,1.15c0,2.7,0,5.41,0,8.11Z"/><path d="M109.7,87.42c.24,1.2-.27,1.47-1.31,1.48s-1.41-.24-1.4-1.34.3-1.53,1.48-1.51S110,86.49,109.7,87.42Z"/><path d="M206.34,85.67c.09.74,0,1.27-1,1.28s-.93-.69-.92-1.33-.24-1.4.87-1.42S206.42,84.88,206.34,85.67Z"/><path d="M259.78,71.32c0-.19.14-.4.33-.23s0,.3-.2.37Z"/></g></g></svg>
